<?xml version="1.0" encoding="utf-8"?>
<!-- Generator: Adobe Illustrator 19.2.0, SVG Export Plug-In . SVG Version: 6.00 Build 0)  -->
<svg version="1.1" id="Calque_1" xmlns="http://www.w3.org/2000/svg" xmlns:xlink="http://www.w3.org/1999/xlink" x="0px" y="0px"
	 viewBox="0 0 108.4 108.4" style="enable-background:new 0 0 108.4 108.4;" xml:space="preserve">
<style type="text/css">
	.st0{fill:#DB0C0B;}
	.st1{fill:#FDFDFD;}
</style>
<g id="Calque_4">
	<g>
		<circle id="XMLID_30_" class="st0" cx="54.2" cy="54.2" r="54.2"/>
		<g>
			<path class="st1" d="M57.2,59.4c-1.4-1.3-3-2.4-4.4-3.6c-1.8-1.6-2-3.3-0.5-5.1c0.9-1,2-1.8,3-2.7c4.1-3.8,4.8-9.4,1.7-14
				c-0.7-1-1.6-1.9-2.8-3.2c3.1,0.4,5.6-0.3,7.8-2.3c-5.3,0-10.2,0-15.2,0c-2.6,0-5.1,0.7-7.5,1.8c-6.9,3.2-9.4,11.3-5.3,17.2
				c2.5,3.4,6,4.5,10,4.5c0.5,0,1.7-0.6,1.2,0.8c-0.7,2.4,0.1,4.3,1.8,6.5c-0.9,0-1.4-0.1-1.9,0c-4.5,0.5-9,1.1-12.8,4.1
				c-5.2,4.2-4.8,11.1,0.9,14.6c6.2,3.8,18.1,2.8,23.6-1.9C62.6,71.2,62.7,64.4,57.2,59.4z M41.1,47.1c-2.3-3.2-3.3-6.8-2.9-10.7
				c0.3-2.7,1.7-4.6,4.2-5.4c2.6-0.9,4.8-0.1,6.6,1.8c2.7,2.9,3.6,6.4,3.9,9.5c0,4.2-1.3,6.3-4.2,7.4C45.9,50.7,43,49.8,41.1,47.1z
				 M56.6,71c-0.3,2.6-1.8,4.3-4.1,5.4c-1.9,0.9-4,1.3-6.1,1.2c-3-0.1-5.9-0.6-8.5-2.4c-4.7-3.3-4.3-9.7,0.9-12.3
				c3-1.5,6.4-2,9.7-1.8C52.1,61.2,57,67.4,56.6,71z"/>
			<g>
				<path class="st1" d="M69.3,44.7v-6.2H63v-4.3h6.2V28h4.2v6.2h6.3v4.3h-6.3v6.2H69.3z"/>
			</g>
		</g>
	</g>
</g>
</svg>
