<?xml version="1.0" encoding="utf-8"?>
<!-- Generator: Adobe Illustrator 19.2.0, SVG Export Plug-In . SVG Version: 6.00 Build 0)  -->
<svg version="1.1" id="Calque_1" xmlns="http://www.w3.org/2000/svg" xmlns:xlink="http://www.w3.org/1999/xlink" x="0px" y="0px"
	 viewBox="0 0 108.6 108.6" style="enable-background:new 0 0 108.6 108.6;" xml:space="preserve">
<style type="text/css">
	.st0{fill:url(#XMLID_2_);}
	.st1{fill:#FFFFFF;}
</style>
<g id="Calque_3">
	<g>
		
			<linearGradient id="XMLID_2_" gradientUnits="userSpaceOnUse" x1="-1187.6952" y1="542.811" x2="-1091.1042" y2="466.3111" gradientTransform="matrix(-1 0 0 1 -1087.2371 -451.9904)">
			<stop  offset="0" style="stop-color:#FEC053"/>
			<stop  offset="0.3273" style="stop-color:#F2203E"/>
			<stop  offset="0.6485" style="stop-color:#B729A8"/>
			<stop  offset="1" style="stop-color:#5342D6"/>
		</linearGradient>
		<path id="XMLID_6_" class="st0" d="M0,54.3C0,24.3,24.3,0,54.3,0s54.3,24.3,54.3,54.3s-24.3,54.3-54.3,54.3
			C24.3,108.5,0,84.2,0,54.3z"/>
		<g>
			<path class="st1" d="M73.3,54.3c0-10.5-8.5-19-19-19s-19,8.5-19,19s8.5,19,19,19S73.3,64.8,73.3,54.3L73.3,54.3z M72.9,32.7
				c-1.7,0-3.1,1.4-3.1,3.1c0,1.7,1.4,3.1,3.1,3.1c1.7,0,3.1-1.4,3.1-3.1C76,34.1,74.6,32.7,72.9,32.7L72.9,32.7z M38.7,28.3h31.1
				c5.8,0,10.4,4.7,10.4,10.4v31.1c0,5.8-4.7,10.4-10.4,10.4H38.7c-5.7,0-10.4-4.7-10.4-10.4V38.7C28.3,33,33,28.3,38.7,28.3
				L38.7,28.3z M69.8,24.8H38.7c-7.7,0-13.9,6.3-13.9,13.9v31.1c0,7.7,6.3,13.9,13.9,13.9h31.1c7.7,0,13.9-6.3,13.9-13.9V38.7
				C83.7,31.1,77.5,24.8,69.8,24.8L69.8,24.8z M39.2,54.3c0-8.3,6.7-15.1,15.1-15.1c8.3,0,15.1,6.7,15.1,15.1
				c0,8.3-6.7,15.1-15.1,15.1C46,69.3,39.2,62.6,39.2,54.3L39.2,54.3z"/>
		</g>
	</g>
</g>
</svg>
