<?xml version="1.0" encoding="utf-8"?>
<!-- Generator: Adobe Illustrator 19.2.0, SVG Export Plug-In . SVG Version: 6.00 Build 0)  -->
<svg version="1.1" id="Calque_1" xmlns="http://www.w3.org/2000/svg" xmlns:xlink="http://www.w3.org/1999/xlink" x="0px" y="0px"
	 viewBox="0 0 108.4 108.4" style="enable-background:new 0 0 108.4 108.4;" xml:space="preserve">
<style type="text/css">
	.st0{fill:#00A9FF;}
	.st1{fill:#FFFFFF;}
</style>
<g id="Calque_2">
	<g>
		<path id="XMLID_49_" class="st0" d="M108.4,54.2c0,29.9-24.3,54.2-54.2,54.2S0,84.1,0,54.2S24.3,0,54.2,0
			C84.1,0,108.4,24.3,108.4,54.2z"/>
		<path id="XMLID_47_" class="st1" d="M86.3,37.7c-2.4,1-4.9,1.7-7.6,2c2.7-1.6,4.8-4.1,5.8-7.2c-2.5,1.5-5.4,2.6-8.4,3.2
			c-2.4-2.5-5.8-4.1-9.6-4.1c-7.3,0-13.2,5.8-13.2,13c0,1,0.1,2,0.3,3c-10.9-0.5-20.7-5.7-27.1-13.5c-1.1,1.9-1.8,4.1-1.8,6.5
			c0,4.5,2.3,8.5,5.9,10.8c-2.2-0.1-4.2-0.7-6-1.6c0,0.1,0,0.1,0,0.2c0,1.7,0.3,3.2,0.9,4.7c1.6,4.1,5.2,7.1,9.7,8
			c-1.1,0.3-2.3,0.5-3.5,0.5c-0.8,0-1.7-0.1-2.5-0.2c1.7,5.1,6.5,8.9,12.3,9c-4.5,3.5-10.2,5.6-16.4,5.6c-1.1,0-2.1-0.1-3.1-0.2
			c5.8,3.7,12.8,5.8,20.2,5.8c20.6,0,33.2-14.3,36.6-29.1c0.6-2.6,0.9-5.3,0.9-7.8c0-0.6,0-1.1,0-1.7C82.3,42.6,84.5,40.3,86.3,37.7
			z"/>
	</g>
</g>
</svg>
